<svg width="27" height="28" viewBox="0 0 27 28" fill="none" xmlns="http://www.w3.org/2000/svg">
<rect y="0.272949" width="27" height="27" rx="8" fill="white"/>
<path d="M14 10.9396C13.3004 10.9396 12.6186 11.1597 12.051 11.5688C11.4835 11.9779 11.059 12.5551 10.8378 13.2188C10.6165 13.8825 10.6097 14.599 10.8183 15.2668C11.0269 15.9346 11.4404 16.5198 12 16.9396V19.6063C12 19.9599 12.1405 20.299 12.3906 20.5491C12.6406 20.7991 12.9798 20.9396 13.3334 20.9396H14.6667C15.0203 20.9396 15.3595 20.7991 15.6095 20.5491C15.8596 20.299 16 19.9599 16 19.6063V16.9396C16.5597 16.5198 16.9732 15.9346 17.1818 15.2668C17.3904 14.599 17.3836 13.8825 17.1623 13.2188C16.9411 12.5551 16.5166 11.9779 15.9491 11.5688C15.3815 11.1597 14.6996 10.9396 14 10.9396ZM15 15.9996C14.8983 16.0583 14.8139 16.1429 14.7554 16.2448C14.6968 16.3466 14.6662 16.4621 14.6667 16.5796V19.6063H13.3334V16.5796C13.3338 16.4621 13.3033 16.3466 13.2447 16.2448C13.1862 16.1429 13.1018 16.0583 13 15.9996C12.6968 15.8245 12.4448 15.5729 12.2693 15.2699C12.0938 14.9669 12.001 14.6231 12 14.2729C12 13.7425 12.2108 13.2338 12.5858 12.8587C12.9609 12.4836 13.4696 12.2729 14 12.2729C14.5305 12.2729 15.0392 12.4836 15.4143 12.8587C15.7893 13.2338 16 13.7425 16 14.2729C15.9991 14.6231 15.9062 14.9669 15.7307 15.2699C15.5553 15.5729 15.3033 15.8245 15 15.9996ZM14 10.2729C14.1769 10.2729 14.3464 10.2027 14.4714 10.0777C14.5965 9.95264 14.6667 9.78307 14.6667 9.60626V8.27293C14.6667 8.09612 14.5965 7.92655 14.4714 7.80152C14.3464 7.6765 14.1769 7.60626 14 7.60626C13.8232 7.60626 13.6537 7.6765 13.5286 7.80152C13.4036 7.92655 13.3334 8.09612 13.3334 8.27293V9.60626C13.3334 9.78307 13.4036 9.95264 13.5286 10.0777C13.6537 10.2027 13.8232 10.2729 14 10.2729ZM20 13.6063H18.6667C18.4899 13.6063 18.3203 13.6765 18.1953 13.8015C18.0703 13.9265 18 14.0961 18 14.2729C18 14.4497 18.0703 14.6193 18.1953 14.7443C18.3203 14.8694 18.4899 14.9396 18.6667 14.9396H20C20.1769 14.9396 20.3464 14.8694 20.4714 14.7443C20.5965 14.6193 20.6667 14.4497 20.6667 14.2729C20.6667 14.0961 20.5965 13.9265 20.4714 13.8015C20.3464 13.6765 20.1769 13.6063 20 13.6063ZM9.33337 13.6063H8.00004C7.82323 13.6063 7.65366 13.6765 7.52864 13.8015C7.40361 13.9265 7.33337 14.0961 7.33337 14.2729C7.33337 14.4497 7.40361 14.6193 7.52864 14.7443C7.65366 14.8694 7.82323 14.9396 8.00004 14.9396H9.33337C9.51019 14.9396 9.67975 14.8694 9.80478 14.7443C9.9298 14.6193 10 14.4497 10 14.2729C10 14.0961 9.9298 13.9265 9.80478 13.8015C9.67975 13.6765 9.51019 13.6063 9.33337 13.6063ZM11.1067 10.5529L10.1467 9.60626C10.0168 9.48338 9.8433 9.41715 9.66452 9.42215C9.48573 9.42715 9.31626 9.50297 9.19337 9.63293C9.07049 9.76289 9.00426 9.93633 9.00927 10.1151C9.01427 10.2939 9.09008 10.4634 9.22004 10.5863L10.18 11.5129C10.2445 11.5751 10.3208 11.6237 10.4044 11.6558C10.488 11.6879 10.5772 11.7028 10.6667 11.6996C10.7565 11.6993 10.8453 11.6808 10.9278 11.6453C11.0103 11.6097 11.0847 11.5579 11.1467 11.4929C11.2657 11.3628 11.3283 11.1908 11.3208 11.0147C11.3133 10.8385 11.2363 10.6725 11.1067 10.5529ZM18.7934 9.6396C18.6685 9.51543 18.4995 9.44573 18.3234 9.44573C18.1473 9.44573 17.9783 9.51543 17.8534 9.6396L16.8934 10.5529C16.7692 10.6778 16.6995 10.8468 16.6995 11.0229C16.6995 11.1991 16.7692 11.368 16.8934 11.4929C16.9553 11.5579 17.0298 11.6097 17.1123 11.6453C17.1948 11.6808 17.2836 11.6993 17.3734 11.6996C17.545 11.6989 17.7098 11.632 17.8334 11.5129L18.7934 10.5863C18.8559 10.5243 18.9055 10.4506 18.9393 10.3693C18.9731 10.2881 18.9906 10.2009 18.9906 10.1129C18.9906 10.0249 18.9731 9.93778 18.9393 9.85654C18.9055 9.77531 18.8559 9.70157 18.7934 9.6396Z" fill="#F87488"/>
</svg>
