<svg width="75" height="75" viewBox="0 0 75 75" fill="none" xmlns="http://www.w3.org/2000/svg">
<rect x="0.707397" y="0.593079" width="73.4157" height="73.4157" rx="16" fill="#F87488"/>
<path d="M38.7746 29.5968C36.8723 29.5968 35.0182 30.1954 33.4749 31.3077C31.9317 32.4199 30.7776 33.9896 30.176 35.7943C29.5744 37.599 29.556 39.5472 30.1232 41.363C30.6904 43.1788 31.8145 44.77 33.3364 45.9114V53.1624C33.3364 54.1239 33.7183 55.046 34.3982 55.7259C35.0781 56.4059 36.0003 56.7878 36.9618 56.7878H40.5873C41.5488 56.7878 42.471 56.4059 43.1509 55.7259C43.8308 55.046 44.2128 54.1239 44.2128 53.1624V45.9114C45.7346 44.77 46.8587 43.1788 47.426 41.363C47.9932 39.5472 47.9747 37.599 47.3731 35.7943C46.7715 33.9896 45.6174 32.4199 44.0742 31.3077C42.531 30.1954 40.6769 29.5968 38.7746 29.5968ZM41.4937 43.3555C41.217 43.5152 40.9875 43.7451 40.8283 44.0221C40.6692 44.299 40.586 44.6131 40.5873 44.9325V53.1624H36.9618V44.9325C36.9631 44.6131 36.8799 44.299 36.7208 44.0221C36.5616 43.7451 36.3321 43.5152 36.0555 43.3555C35.2309 42.8794 34.5458 42.1952 34.0686 41.3713C33.5914 40.5474 33.3389 39.6126 33.3364 38.6605C33.3364 37.2182 33.9093 35.835 34.9292 34.8151C35.949 33.7952 37.3323 33.2223 38.7746 33.2223C40.2169 33.2223 41.6001 33.7952 42.6199 34.8151C43.6398 35.835 44.2128 37.2182 44.2128 38.6605C44.2102 39.6126 43.9577 40.5474 43.4805 41.3713C43.0034 42.1952 42.3182 42.8794 41.4937 43.3555ZM38.7746 27.7841C39.2553 27.7841 39.7164 27.5931 40.0564 27.2531C40.3963 26.9132 40.5873 26.4521 40.5873 25.9713V22.3459C40.5873 21.8651 40.3963 21.404 40.0564 21.0641C39.7164 20.7241 39.2553 20.5331 38.7746 20.5331C38.2938 20.5331 37.8327 20.7241 37.4928 21.0641C37.1528 21.404 36.9618 21.8651 36.9618 22.3459V25.9713C36.9618 26.4521 37.1528 26.9132 37.4928 27.2531C37.8327 27.5931 38.2938 27.7841 38.7746 27.7841ZM55.0892 36.8477H51.4637C50.9829 36.8477 50.5219 37.0387 50.1819 37.3787C49.8419 37.7186 49.651 38.1797 49.651 38.6605C49.651 39.1412 49.8419 39.6023 50.1819 39.9423C50.5219 40.2822 50.9829 40.4732 51.4637 40.4732H55.0892C55.5699 40.4732 56.031 40.2822 56.371 39.9423C56.7109 39.6023 56.9019 39.1412 56.9019 38.6605C56.9019 38.1797 56.7109 37.7186 56.371 37.3787C56.031 37.0387 55.5699 36.8477 55.0892 36.8477ZM26.0854 36.8477H22.46C21.9792 36.8477 21.5181 37.0387 21.1782 37.3787C20.8382 37.7186 20.6472 38.1797 20.6472 38.6605C20.6472 39.1412 20.8382 39.6023 21.1782 39.9423C21.5181 40.2822 21.9792 40.4732 22.46 40.4732H26.0854C26.5662 40.4732 27.0273 40.2822 27.3672 39.9423C27.7072 39.6023 27.8982 39.1412 27.8982 38.6605C27.8982 38.1797 27.7072 37.7186 27.3672 37.3787C27.0273 37.0387 26.5662 36.8477 26.0854 36.8477ZM30.9073 28.5454L28.297 25.9713C27.9436 25.6372 27.472 25.4571 26.9858 25.4707C26.4997 25.4843 26.0389 25.6905 25.7047 26.0439C25.3706 26.3972 25.1905 26.8688 25.2041 27.355C25.2177 27.8411 25.4239 28.3019 25.7773 28.6361L28.3876 31.1558C28.5628 31.3249 28.7702 31.457 28.9976 31.5442C29.2249 31.6314 29.4675 31.6719 29.7109 31.6633C29.9551 31.6624 30.1966 31.6121 30.4208 31.5156C30.6451 31.419 30.8476 31.2781 31.0161 31.1014C31.3396 30.7476 31.5099 30.28 31.4895 29.8009C31.4691 29.3219 31.2598 28.8705 30.9073 28.5454ZM51.8081 26.062C51.4685 25.7244 51.009 25.5349 50.5301 25.5349C50.0512 25.5349 49.5918 25.7244 49.2522 26.062L46.6418 28.5454C46.3042 28.8851 46.1147 29.3445 46.1147 29.8234C46.1147 30.3023 46.3042 30.7617 46.6418 31.1014C46.8103 31.2781 47.0128 31.419 47.2371 31.5156C47.4613 31.6121 47.7028 31.6624 47.947 31.6633C48.4137 31.6615 48.8617 31.4797 49.1978 31.1558L51.8081 28.6361C51.978 28.4675 52.1129 28.2671 52.2049 28.0462C52.2969 27.8253 52.3443 27.5883 52.3443 27.349C52.3443 27.1097 52.2969 26.8728 52.2049 26.6519C52.1129 26.431 51.978 26.2305 51.8081 26.062Z" fill="#FFF7F3"/>
</svg>
