<svg width="27" height="27" viewBox="0 0 27 27" fill="none" xmlns="http://www.w3.org/2000/svg">
<rect width="27" height="27" rx="8" fill="#B888F8"/>
<path d="M14 10.6666C13.3004 10.6666 12.6186 10.8867 12.051 11.2958C11.4835 11.7048 11.059 12.2821 10.8378 12.9458C10.6165 13.6095 10.6097 14.326 10.8183 14.9938C11.0269 15.6616 11.4404 16.2468 12 16.6666V19.3333C12 19.6869 12.1405 20.026 12.3906 20.2761C12.6406 20.5261 12.9798 20.6666 13.3334 20.6666H14.6667C15.0203 20.6666 15.3595 20.5261 15.6095 20.2761C15.8596 20.026 16 19.6869 16 19.3333V16.6666C16.5597 16.2468 16.9732 15.6616 17.1818 14.9938C17.3904 14.326 17.3836 13.6095 17.1623 12.9458C16.9411 12.2821 16.5166 11.7048 15.9491 11.2958C15.3815 10.8867 14.6996 10.6666 14 10.6666ZM15 15.7266C14.8983 15.7853 14.8139 15.8699 14.7554 15.9718C14.6968 16.0736 14.6662 16.1891 14.6667 16.3066V19.3333H13.3334V16.3066C13.3338 16.1891 13.3033 16.0736 13.2447 15.9718C13.1862 15.8699 13.1018 15.7853 13 15.7266C12.6968 15.5515 12.4448 15.2999 12.2693 14.9969C12.0938 14.6939 12.001 14.3501 12 13.9999C12 13.4695 12.2108 12.9608 12.5858 12.5857C12.9609 12.2106 13.4696 11.9999 14 11.9999C14.5305 11.9999 15.0392 12.2106 15.4143 12.5857C15.7893 12.9608 16 13.4695 16 13.9999C15.9991 14.3501 15.9062 14.6939 15.7307 14.9969C15.5553 15.2999 15.3033 15.5515 15 15.7266ZM14 9.99992C14.1769 9.99992 14.3464 9.92968 14.4714 9.80466C14.5965 9.67963 14.6667 9.51006 14.6667 9.33325V7.99992C14.6667 7.82311 14.5965 7.65354 14.4714 7.52851C14.3464 7.40349 14.1769 7.33325 14 7.33325C13.8232 7.33325 13.6537 7.40349 13.5286 7.52851C13.4036 7.65354 13.3334 7.82311 13.3334 7.99992V9.33325C13.3334 9.51006 13.4036 9.67963 13.5286 9.80466C13.6537 9.92968 13.8232 9.99992 14 9.99992ZM20 13.3333H18.6667C18.4899 13.3333 18.3203 13.4035 18.1953 13.5285C18.0703 13.6535 18 13.8231 18 13.9999C18 14.1767 18.0703 14.3463 18.1953 14.4713C18.3203 14.5963 18.4899 14.6666 18.6667 14.6666H20C20.1769 14.6666 20.3464 14.5963 20.4714 14.4713C20.5965 14.3463 20.6667 14.1767 20.6667 13.9999C20.6667 13.8231 20.5965 13.6535 20.4714 13.5285C20.3464 13.4035 20.1769 13.3333 20 13.3333ZM9.33337 13.3333H8.00004C7.82323 13.3333 7.65366 13.4035 7.52864 13.5285C7.40361 13.6535 7.33337 13.8231 7.33337 13.9999C7.33337 14.1767 7.40361 14.3463 7.52864 14.4713C7.65366 14.5963 7.82323 14.6666 8.00004 14.6666H9.33337C9.51019 14.6666 9.67975 14.5963 9.80478 14.4713C9.9298 14.3463 10 14.1767 10 13.9999C10 13.8231 9.9298 13.6535 9.80478 13.5285C9.67975 13.4035 9.51019 13.3333 9.33337 13.3333ZM11.1067 10.2799L10.1467 9.33325C10.0168 9.21037 9.8433 9.14414 9.66452 9.14914C9.48573 9.15414 9.31626 9.22996 9.19337 9.35992C9.07049 9.48987 9.00426 9.66332 9.00927 9.84211C9.01427 10.0209 9.09008 10.1904 9.22004 10.3133L10.18 11.2399C10.2445 11.3021 10.3208 11.3507 10.4044 11.3828C10.488 11.4149 10.5772 11.4298 10.6667 11.4266C10.7565 11.4262 10.8453 11.4078 10.9278 11.3722C11.0103 11.3367 11.0847 11.2849 11.1467 11.2199C11.2657 11.0898 11.3283 10.9178 11.3208 10.7417C11.3133 10.5655 11.2363 10.3995 11.1067 10.2799ZM18.7934 9.36659C18.6685 9.24242 18.4995 9.17272 18.3234 9.17272C18.1473 9.17272 17.9783 9.24242 17.8534 9.36659L16.8934 10.2799C16.7692 10.4048 16.6995 10.5738 16.6995 10.7499C16.6995 10.926 16.7692 11.095 16.8934 11.2199C16.9553 11.2849 17.0298 11.3367 17.1123 11.3722C17.1948 11.4078 17.2836 11.4262 17.3734 11.4266C17.545 11.4259 17.7098 11.359 17.8334 11.2399L18.7934 10.3133C18.8559 10.2513 18.9055 10.1775 18.9393 10.0963C18.9731 10.0151 18.9906 9.92793 18.9906 9.83992C18.9906 9.75191 18.9731 9.66477 18.9393 9.58353C18.9055 9.50229 18.8559 9.42856 18.7934 9.36659Z" fill="white"/>
</svg>
