<svg width="69" height="91" viewBox="0 0 69 91" fill="none" xmlns="http://www.w3.org/2000/svg">
<circle cx="34.2473" cy="34.2473" r="34.2473" fill="#FFCE31"/>
<path d="M26.662 41.2211C25.827 39.906 25.2008 38.6014 24.7833 37.3071C24.3867 35.992 24.1884 34.6874 24.1884 33.3932C24.1884 31.1596 24.7728 29.0199 25.9418 26.9742C27.1108 24.9077 28.8329 23.0081 31.1083 21.2755L34.1768 23.0916C34.4273 23.2586 34.6048 23.4464 34.7091 23.6552C34.8344 23.843 34.897 24.0414 34.897 24.2501C34.897 24.4797 34.8448 24.6989 34.7404 24.9077C34.6361 25.1164 34.5108 25.2938 34.3647 25.44C34.1351 25.6904 33.8742 26.0036 33.5819 26.3793C33.3105 26.7342 33.0496 27.1621 32.7991 27.6631C32.5486 28.1432 32.3294 28.6859 32.1416 29.2913C31.9746 29.8758 31.8911 30.5125 31.8911 31.2013C31.8911 31.9528 32.0163 32.7565 32.2668 33.6123C32.5382 34.4682 32.9765 35.3867 33.5819 36.3678C33.7907 36.7018 33.895 37.0358 33.895 37.3698C33.895 37.7455 33.7698 38.0795 33.5193 38.3717C33.2688 38.664 32.9244 38.8936 32.486 39.0606L26.662 41.2211ZM37.8716 41.2211C37.0366 39.906 36.4104 38.6014 35.9929 37.3071C35.5963 35.992 35.398 34.6874 35.398 33.3932C35.398 31.1596 35.9825 29.0199 37.1515 26.9742C38.3204 24.9077 40.0426 23.0081 42.3179 21.2755L45.3865 23.0916C45.637 23.2586 45.8144 23.4464 45.9188 23.6552C46.044 23.843 46.1066 24.0414 46.1066 24.2501C46.1066 24.4797 46.0545 24.6989 45.9501 24.9077C45.8457 25.1164 45.7205 25.2938 45.5743 25.44C45.3447 25.6904 45.0838 26.0036 44.7915 26.3793C44.5202 26.7342 44.2592 27.1621 44.0087 27.6631C43.7583 28.1432 43.5391 28.6859 43.3512 29.2913C43.1842 29.8758 43.1007 30.5125 43.1007 31.2013C43.1007 31.9528 43.226 32.7565 43.4764 33.6123C43.7478 34.4682 44.1862 35.3867 44.7915 36.3678C45.0003 36.7018 45.1047 37.0358 45.1047 37.3698C45.1047 37.7455 44.9794 38.0795 44.7289 38.3717C44.4784 38.664 44.134 38.8936 43.6956 39.0606L37.8716 41.2211Z" fill="white"/>
</svg>
